{"title":"Harrys Law S02 E21 - pKcMvA","uid":7298514,"size":156487014,"categoryP":"video","categoryS":"tv_shows","magnet":"?xt=urn:btih:7d35ca480407252a8c2c95209434d9dde2e6cc1b&amp;dn=Harrys+Law+S02+E21+-+pKcMvA&amp;tr=udp%3A%2F%2Ftracker.openbittorrent.com%3A80&amp;tr=udp%3A%2F%2Fopen.demonii.com%3A1337&amp;tr=udp%3A%2F%2Ftracker.coppersurfer.tk%3A6969&amp;tr=udp%3A%2F%2Fexodus.desync.com%3A6969","seeders":0,"leechers":0,"uploader":"PKCMVA","files":1,"time":1337962565,"description":"Format                                   : AVI\nFormat/Info                              : Audio Video Interleave\nFile size                                : 149 MiB\nDuration                                 : 42mn 39s\nOverall bit rate                         : 489 Kbps\n\nVideo\nFormat                                   : MPEG-4 Visual\nFormat profile                           : Advanced Simple@L5\nFormat settings, Matrix                  : Default (H.263)\nMuxing mode                              : Packed bitstream\nCodec ID                                 : XVID\nCodec ID/Hint                            : XviD\nDuration                                 : 42mn 39s\nBit rate                                 : 352 Kbps\nWidth                                    : 624 pixels\nHeight                                   : 352 pixels\nDisplay aspect ratio                     : 16:9\nFrame rate                               : 23.976 fps\nColor space                              : YUV\nChroma subsampling                       : 4:2:0\nBit depth                                : 8 bits\nScan type                                : Progressive\nBits/(Pixel*Frame)                       : 0.067\nStream size                              : 107 MiB (72%)\nWriting library                          : XviD 64\n\nAudio\nFormat                                   : MPEG Audio\nFormat version                           : Version 1\nFormat profile                           : Layer 3\nCodec ID                                 : 55\nCodec ID/Hint                            : MP3\nDuration                                 : 42mn 39s\nBit rate mode                            : Constant\nBit rate                                 : 128 Kbps\nChannel(s)                               : 2 channels\nSampling rate                            : 48.0 KHz\nStream size                              : 39.1 MiB (26%)\nAlignment                                : Split accross interleaves\nInterleave, duration                     : 42 ms (1.00 video frame)","torrent":{"xt":"urn:btih:7d35ca480407252a8c2c95209434d9dde2e6cc1b","amp;dn":"Harrys+Law+S02+E21+-+pKcMvA","amp;tr":["udp%3A%2F%2Ftracker.openbittorrent.com%3A80","udp%3A%2F%2Fopen.demonii.com%3A1337","udp%3A%2F%2Ftracker.coppersurfer.tk%3A6969","udp%3A%2F%2Fexodus.desync.com%3A6969"],"infoHash":"7d35ca480407252a8c2c95209434d9dde2e6cc1b","infoHashBuffer":{"type":"Buffer","data":[125,53,202,72,4,7,37,42,140,44,149,32,148,52,217,221,226,230,204,27]},"announce":[],"urlList":[]}}